<mxfile host="app.diagrams.net" modified="2022-11-07T07:29:58.386Z" agent="5.0 (Windows NT 10.0; Win64; x64) AppleWebKit/537.36 (KHTML, like Gecko) Chrome/107.0.0.0 Safari/537.36" etag="X3BUurqirSAqb-qQMruL" version="20.5.3" type="github">
  <diagram id="jApLSYbmCl-nFG6z3ZTF" name="ページ1">
    <mxGraphModel dx="1422" dy="697" grid="1" gridSize="10" guides="1" tooltips="1" connect="1" arrows="1" fold="1" page="1" pageScale="1" pageWidth="827" pageHeight="1169" math="0" shadow="0">
      <root>
        <mxCell id="0" />
        <mxCell id="1" parent="0" />
        <mxCell id="DvvQ_KvBL00KwLb0unag-1" value="&lt;font style=&quot;font-size: 21px;&quot; face=&quot;Times New Roman&quot;&gt;Target&lt;/font&gt;" style="ellipse;whiteSpace=wrap;html=1;aspect=fixed;gradientColor=none;strokeColor=#000000;fillStyle=solid;fillColor=#99FFFF;" vertex="1" parent="1">
          <mxGeometry x="470" y="270" width="180" height="180" as="geometry" />
        </mxCell>
        <mxCell id="DvvQ_KvBL00KwLb0unag-2" value="&lt;font style=&quot;font-size: 17px;&quot; face=&quot;Times New Roman&quot;&gt;Projectile&lt;/font&gt;" style="ellipse;whiteSpace=wrap;html=1;aspect=fixed;fillColor=#FFFFCC;" vertex="1" parent="1">
          <mxGeometry x="40" y="320" width="80" height="80" as="geometry" />
        </mxCell>
        <mxCell id="DvvQ_KvBL00KwLb0unag-3" value="&lt;font style=&quot;font-size: 17px;&quot; face=&quot;Times New Roman&quot;&gt;Projectile&lt;/font&gt;" style="ellipse;whiteSpace=wrap;html=1;aspect=fixed;fillColor=#FFFFCC;" vertex="1" parent="1">
          <mxGeometry x="460" y="200" width="80" height="80" as="geometry" />
        </mxCell>
        <mxCell id="DvvQ_KvBL00KwLb0unag-4" value="" style="curved=1;endArrow=classic;html=1;rounded=0;strokeWidth=7;shadow=0;strokeColor=#808080;" edge="1" parent="1">
          <mxGeometry width="50" height="50" relative="1" as="geometry">
            <mxPoint x="130" y="360" as="sourcePoint" />
            <mxPoint x="460" y="270" as="targetPoint" />
            <Array as="points">
              <mxPoint x="350" y="340" />
            </Array>
          </mxGeometry>
        </mxCell>
        <mxCell id="DvvQ_KvBL00KwLb0unag-5" value="" style="curved=1;endArrow=classic;html=1;rounded=0;strokeWidth=7;shadow=0;strokeColor=#808080;" edge="1" parent="1">
          <mxGeometry width="50" height="50" relative="1" as="geometry">
            <mxPoint x="550" y="220" as="sourcePoint" />
            <mxPoint x="690" y="110" as="targetPoint" />
            <Array as="points">
              <mxPoint x="630" y="180" />
            </Array>
          </mxGeometry>
        </mxCell>
        <mxCell id="DvvQ_KvBL00KwLb0unag-6" value="" style="endArrow=classic;startArrow=classic;html=1;rounded=0;strokeColor=#EA6B66;" edge="1" parent="1">
          <mxGeometry width="50" height="50" relative="1" as="geometry">
            <mxPoint x="525" y="298" as="sourcePoint" />
            <mxPoint x="505" y="268" as="targetPoint" />
          </mxGeometry>
        </mxCell>
        <mxCell id="DvvQ_KvBL00KwLb0unag-7" value="" style="endArrow=classic;startArrow=classic;html=1;rounded=0;strokeColor=#EA6B66;" edge="1" parent="1">
          <mxGeometry width="50" height="50" relative="1" as="geometry">
            <mxPoint x="543" y="287" as="sourcePoint" />
            <mxPoint x="523" y="257" as="targetPoint" />
          </mxGeometry>
        </mxCell>
        <mxCell id="DvvQ_KvBL00KwLb0unag-8" value="&lt;font style=&quot;font-size: 14px;&quot;&gt;Nucleon Transfer Reaction&lt;/font&gt;" style="rounded=1;whiteSpace=wrap;html=1;fontFamily=Times New Roman;strokeColor=#0000FF;strokeWidth=3;" vertex="1" parent="1">
          <mxGeometry x="580" y="225" width="160" height="30" as="geometry" />
        </mxCell>
        <mxCell id="DvvQ_KvBL00KwLb0unag-9" value="" style="endArrow=classic;html=1;rounded=0;strokeColor=#000000;fontFamily=Times New Roman;fontSize=14;exitX=0;exitY=0.75;exitDx=0;exitDy=0;" edge="1" parent="1" source="DvvQ_KvBL00KwLb0unag-8">
          <mxGeometry width="50" height="50" relative="1" as="geometry">
            <mxPoint x="390" y="370" as="sourcePoint" />
            <mxPoint x="540" y="270" as="targetPoint" />
          </mxGeometry>
        </mxCell>
        <mxCell id="DvvQ_KvBL00KwLb0unag-12" value="" style="ellipse;whiteSpace=wrap;html=1;strokeColor=#0000FF;fontFamily=Times New Roman;fontSize=14;fillColor=none;rotation=-30;strokeWidth=3;" vertex="1" parent="1">
          <mxGeometry x="489.68" y="256.02" width="67.48" height="43.35" as="geometry" />
        </mxCell>
        <mxCell id="DvvQ_KvBL00KwLb0unag-15" value="&lt;font color=&quot;#ff0000&quot; style=&quot;font-size: 15px;&quot;&gt;SPIN&lt;/font&gt;" style="html=1;shadow=0;dashed=0;align=center;verticalAlign=middle;shape=mxgraph.arrows2.jumpInArrow;dy=15;dx=38;arrowHead=55;strokeColor=#FF0000;strokeWidth=2;fontFamily=Times New Roman;fontSize=14;fillColor=none;rotation=-30;" vertex="1" parent="1">
          <mxGeometry x="460" y="330" width="100" height="60" as="geometry" />
        </mxCell>
      </root>
    </mxGraphModel>
  </diagram>
</mxfile>
